ffmpeg version 4.2.7-0ubuntu0.1 Copyright (c) 2000-2022 the FFmpeg developers
  built with gcc 9 (Ubuntu 9.4.0-1ubuntu1~20.04.1)
  configuration: --prefix=/usr --extra-version=0ubuntu0.1 --toolchain=hardened --libdir=/usr/lib/x86_64-linux-gnu --incdir=/usr/include/x86_64-linux-gnu --arch=amd64 --enable-gpl --disable-stripping --enable-avresample --disable-filter=resample --enable-avisynth --enable-gnutls --enable-ladspa --enable-libaom --enable-libass --enable-libbluray --enable-libbs2b --enable-libcaca --enable-libcdio --enable-libcodec2 --enable-libflite --enable-libfontconfig --enable-libfreetype --enable-libfribidi --enable-libgme --enable-libgsm --enable-libjack --enable-libmp3lame --enable-libmysofa --enable-libopenjpeg --enable-libopenmpt --enable-libopus --enable-libpulse --enable-librsvg --enable-librubberband --enable-libshine --enable-libsnappy --enable-libsoxr --enable-libspeex --enable-libssh --enable-libtheora --enable-libtwolame --enable-libvidstab --enable-libvorbis --enable-libvpx --enable-libwavpack --enable-libwebp --enable-libx265 --enable-libxml2 --enable-libxvid --enable-libzmq --enable-libzvbi --enable-lv2 --enable-omx --enable-openal --enable-opencl --enable-opengl --enable-sdl2 --enable-libdc1394 --enable-libdrm --enable-libiec61883 --enable-nvenc --enable-chromaprint --enable-frei0r --enable-libx264 --enable-shared
  libavutil      56. 31.100 / 56. 31.100
  libavcodec     58. 54.100 / 58. 54.100
  libavformat    58. 29.100 / 58. 29.100
  libavdevice    58.  8.100 / 58.  8.100
  libavfilter     7. 57.100 /  7. 57.100
  libavresample   4.  0.  0 /  4.  0.  0
  libswscale      5.  5.100 /  5.  5.100
  libswresample   3.  5.100 /  3.  5.100
  libpostproc    55.  5.100 / 55.  5.100
[rawvideo @ 0x55db39e7c780] Estimating duration from bitrate, this may be inaccurate
Input #0, rawvideo, from 'output.yuv':
  Duration: 00:00:04.80, start: 0.000000, bitrate: 2488320 kb/s
    Stream #0:0: Video: rawvideo (I420 / 0x30323449), yuv420p, 3840x2160, 2488320 kb/s, 25 tbr, 25 tbn, 25 tbc
Stream mapping:
  Stream #0:0 -> #0:0 (rawvideo (native) -> h264 (libx264))
Press [q] to stop, [?] for help
[libx264 @ 0x55db39e81d80] using cpu capabilities: MMX2 SSE2Fast SSSE3 SSE4.2 AVX
[libx264 @ 0x55db39e81d80] profile High, level 5.1
Output #0, h264, to 'output_h264.264':
  Metadata:
    encoder         : Lavf58.29.100
    Stream #0:0: Video: h264 (libx264), yuv420p, 3840x2160, q=-1--1, 30 fps, 30 tbn, 30 tbc
    Metadata:
      encoder         : Lavc58.54.100 libx264
    Side data:
      cpb: bitrate max/min/avg: 0/0/0 buffer size: 0 vbv_delay: -1
frame=   22 fps=0.0 q=0.0 size=       0kB time=00:00:00.00 bitrate=N/A speed=   0x    frame=   45 fps= 45 q=0.0 size=       0kB time=00:00:00.00 bitrate=N/A speed=   0x    frame=   47 fps=9.8 q=0.0 size=       0kB time=00:00:00.00 bitrate=N/A speed=   0x    frame=   52 fps=9.5 q=0.0 size=       0kB time=00:00:00.00 bitrate=N/A speed=   0x    frame=   56 fps=9.2 q=0.0 size=       0kB time=00:00:00.00 bitrate=N/A speed=   0x    frame=   60 fps=9.0 q=29.0 size=     512kB time=00:00:00.06 bitrate=62914.2kbits/s speed=0.00999x    frame=   63 fps=8.3 q=29.0 size=     768kB time=00:00:00.16 bitrate=37748.7kbits/s speed=0.022x    frame=   64 fps=5.4 q=29.0 size=     768kB time=00:00:00.20 bitrate=31457.3kbits/s speed=0.0168x    frame=   72 fps=5.7 q=29.0 size=    1280kB time=00:00:00.46 bitrate=22469.5kbits/s speed=0.0372x    frame=   76 fps=5.5 q=29.0 size=    1536kB time=00:00:00.60 bitrate=20971.5kbits/s speed=0.0438x    frame=   80 fps=5.6 q=29.0 size=    1792kB time=00:00:00.73 bitrate=20018.3kbits/s speed=0.0511x    frame=   87 fps=5.8 q=29.0 size=    2048kB time=00:00:00.96 bitrate=17355.7kbits/s speed=0.064x    frame=   89 fps=5.7 q=29.0 size=    2304kB time=00:00:01.03 bitrate=18265.5kbits/s speed=0.0659x    frame=   95 fps=5.5 q=29.0 size=    2560kB time=00:00:01.23 bitrate=17003.9kbits/s speed=0.0719x    frame=   97 fps=4.6 q=29.0 size=    2816kB time=00:00:01.30 bitrate=17745.1kbits/s speed=0.0612x    frame=  100 fps=4.3 q=29.0 size=    3072kB time=00:00:01.40 bitrate=17975.6kbits/s speed=0.0605x    frame=  109 fps=4.6 q=29.0 size=    3328kB time=00:00:01.70 bitrate=16037.0kbits/s speed=0.0717x    frame=  111 fps=3.6 q=29.0 size=    3584kB time=00:00:01.76 bitrate=16618.9kbits/s speed=0.0577x    frame=  117 fps=3.7 q=29.0 size=    4864kB time=00:00:01.96 bitrate=20260.6kbits/s speed=0.0629x    frame=  120 fps=2.7 q=-1.0 Lsize=   16340kB time=00:00:03.93 bitrate=34030.8kbits/s speed=0.0887x    
video:16340kB audio:0kB subtitle:0kB other streams:0kB global headers:0kB muxing overhead: 0.000000%
[libx264 @ 0x55db39e81d80] frame I:2     Avg QP:23.12  size:481868
[libx264 @ 0x55db39e81d80] frame P:30    Avg QP:25.03  size:175080
[libx264 @ 0x55db39e81d80] frame B:88    Avg QP:26.53  size:119496
[libx264 @ 0x55db39e81d80] consecutive B-frames:  1.7%  1.7%  0.0% 96.7%
[libx264 @ 0x55db39e81d80] mb I  I16..4: 14.2% 74.7% 11.1%
[libx264 @ 0x55db39e81d80] mb P  I16..4:  8.8% 36.2%  2.9%  P16..4: 25.1%  8.0%  4.1%  0.0%  0.0%    skip:14.9%
[libx264 @ 0x55db39e81d80] mb B  I16..4:  3.3% 14.9%  1.2%  B16..8: 26.4%  9.9%  2.2%  direct: 5.1%  skip:37.0%  L0:42.3% L1:50.9% BI: 6.7%
[libx264 @ 0x55db39e81d80] 8x8 transform intra:76.2% inter:85.4%
[libx264 @ 0x55db39e81d80] coded y,uvDC,uvAC intra: 58.0% 62.9% 20.9% inter: 22.6% 26.8% 0.4%
[libx264 @ 0x55db39e81d80] i16 v,h,dc,p: 29% 38%  9% 24%
[libx264 @ 0x55db39e81d80] i8 v,h,dc,ddl,ddr,vr,hd,vl,hu: 12% 18% 18%  4% 12%  9% 15%  5%  7%
[libx264 @ 0x55db39e81d80] i4 v,h,dc,ddl,ddr,vr,hd,vl,hu: 15% 21%  9%  5% 15% 10% 14%  5%  6%
[libx264 @ 0x55db39e81d80] i8c dc,h,v,p: 60% 23% 14%  4%
[libx264 @ 0x55db39e81d80] Weighted P-Frames: Y:46.7% UV:16.7%
[libx264 @ 0x55db39e81d80] ref P L0: 49.6% 16.3% 20.3% 11.0%  2.9%
[libx264 @ 0x55db39e81d80] ref B L0: 81.6% 13.7%  4.7%
[libx264 @ 0x55db39e81d80] ref B L1: 93.8%  6.2%
[libx264 @ 0x55db39e81d80] kb/s:33463.62
